<?xml version="1.0" encoding="utf-8"?>
<!-- Generator: Adobe Illustrator 16.0.0, SVG Export Plug-In . SVG Version: 6.00 Build 0)  -->
<!DOCTYPE svg PUBLIC "-//W3C//DTD SVG 1.1//EN" "http://www.w3.org/Graphics/SVG/1.1/DTD/svg11.dtd">
<svg version="1.1" id="Layer_1" xmlns="http://www.w3.org/2000/svg" xmlns:xlink="http://www.w3.org/1999/xlink" x="0px" y="0px"
	 width="187.273px" height="110.434px" viewBox="0 0 187.273 110.434" enable-background="new 0 0 187.273 110.434"
	 xml:space="preserve">
<g>
	<path fill-rule="evenodd" clip-rule="evenodd" fill="#FFFFFF" d="M4.052,11.418c5.222-1.445,10.536-0.51,15.806-0.553
		c1.831-0.016,1.699,1.668,1.703,2.958c0.021,6.813,0,13.626,0.03,20.439c0.004,0.969-0.44,2.269,0.446,2.826
		c1.082,0.68,1.69-0.69,2.427-1.241c7.116-5.315,16.019-3.154,21.272,5.203c7.304,11.617,6.317,28.798-2.918,39.038
		c-6.983,7.741-13.971,8.592-20.962,2.419c-1.248-1.102-2.241-1.084-3.38-0.033c-4.392,4.049-9.453,2.506-14.423,1.729
		C4.052,59.94,4.052,35.68,4.052,11.418z M21.524,61.283c0,1.602,0.058,3.207-0.013,4.806c-0.117,2.642,0.908,4.575,3.531,5.194
		c2.835,0.67,4.692-1.016,5.688-3.362c2.316-5.461,2.417-11.071,0.389-16.668c-0.794-2.193-2.443-3.57-4.775-3.402
		c-2.388,0.173-3.557,1.941-4.122,4.173C21.448,55.078,21.559,58.182,21.524,61.283z"/>
	<path fill-rule="evenodd" clip-rule="evenodd" fill="#FFFFFF" d="M79.763,71.229c0-10.82-0.002-21.643,0.001-32.464
		c0-4.566,0.005-4.568,4.707-4.574c1.904-0.003,3.811,0.065,5.711-0.011c2.326-0.092,4.238,0.035,5.129,2.878
		c0.709,2.258,1.959,0.604,2.89-0.16c5.745-4.715,12.37-5.326,17.92-1.199c5.17,3.844,7.574,9.423,8.647,15.646
		c1.893,10.973,0.609,21.229-7.229,29.77c-4.894,5.334-10.99,6.303-17.522,3.262c-2.877-1.342-3.249-1.152-3.277,2.034
		c-0.054,6.112-0.111,12.227,0.01,18.335c0.055,2.709-0.886,3.814-3.662,3.668c-3.298-0.176-6.617-0.162-9.916,0
		c-2.655,0.129-3.473-0.945-3.45-3.518C79.818,93.674,79.763,82.45,79.763,71.229z M96.765,60.707c0,1.803,0.082,3.609-0.02,5.405
		c-0.145,2.536,0.766,4.317,3.304,4.991c2.654,0.704,4.614-0.51,5.682-2.777c2.747-5.828,2.54-11.819,0.256-17.734
		c-0.728-1.883-2.288-3.099-4.468-2.91c-2.277,0.2-3.504,1.65-4.123,3.778C96.509,54.504,96.755,57.609,96.765,60.707z"/>
	<path fill-rule="evenodd" clip-rule="evenodd" fill="#FFFFFF" d="M185.519,12.062c-0.197,0.464-0.443,1.116-0.748,1.741
		c-8.542,17.452-17.108,34.891-25.609,52.362c-0.937,1.926-2.018,2.465-4.015,1.57c-4.204-1.881-8.442-3.696-12.718-5.405
		c-2.152-0.86-2.539-2.036-1.738-4.181c5.895-15.756,11.697-31.545,17.525-47.326c0.834-2.255,1.678-4.505,2.449-6.781
		c0.584-1.72,1.615-2.295,3.442-1.943c7.187,1.385,13.522,4.883,20.038,7.936C184.873,10.375,185.503,10.912,185.519,12.062z"/>
	<path fill-rule="evenodd" clip-rule="evenodd" fill="#FFFFFF" d="M55.669,59.711c0-7.307,0.086-14.615-0.044-21.92
		c-0.049-2.75,0.952-3.769,3.68-3.642c3.495,0.163,7.005,0.1,10.506,0.034c2.01-0.037,2.907,0.74,2.902,2.817
		c-0.037,15.012-0.037,30.025,0.003,45.039c0.005,2.049-0.822,2.893-2.858,2.859c-3.902-0.064-7.807-0.049-11.709-0.012
		c-1.856,0.018-2.639-0.617-2.606-2.658c0.119-7.504,0.047-15.012,0.047-22.518C55.615,59.711,55.642,59.711,55.669,59.711z"/>
	<path fill-rule="evenodd" clip-rule="evenodd" fill="#FFFFFF" d="M140.632,71.496c6.848,0.004,13.154,6.285,13.115,13.066
		c-0.041,7.328-6.049,13.138-13.614,13.161c-7.176,0.021-12.86-5.739-12.851-13.021C127.294,77.154,133.015,71.494,140.632,71.496z"
		/>
	<path fill-rule="evenodd" clip-rule="evenodd" fill="#FFFFFF" d="M55.067,18.411c0.01-5.031,3.958-8.846,9.057-8.752
		c5.363,0.1,9.379,3.908,9.396,8.909c0.018,5.131-4.248,9.227-9.519,9.138C58.815,27.619,55.057,23.708,55.067,18.411z"/>
</g>
</svg>
