<?xml version="1.0" encoding="utf-8"?>
<!-- Generator: Adobe Illustrator 16.0.0, SVG Export Plug-In . SVG Version: 6.00 Build 0)  -->
<!DOCTYPE svg PUBLIC "-//W3C//DTD SVG 1.1//EN" "http://www.w3.org/Graphics/SVG/1.1/DTD/svg11.dtd">
<svg version="1.1" id="Layer_1" xmlns="http://www.w3.org/2000/svg" xmlns:xlink="http://www.w3.org/1999/xlink" x="0px" y="0px"
	 width="652px" height="116.655px" viewBox="0 0 652 116.655" enable-background="new 0 0 652 116.655" xml:space="preserve">
<g id="_x39_wvPmm_2_">
	<g>
		<path fill="none" d="M2206.488-88.218c0-7.541,0-15.083,0-22.624c160.369,0,320.737,0.026,481.107-0.126
			c4.988-0.005,6.127,1.123,6.116,6.114c-0.177,85.841-0.174,171.682,0,257.521c0.011,4.556-0.895,5.455-5.451,5.451
			c-158.816-0.152-317.633-0.152-476.449,0c-4.556,0.004-5.507-0.885-5.46-5.451c0.277-26.613,0.137-53.234,0.137-79.852
			c10.996,1.721,22.195,5.135,31.912-3.824c2.52-2.324,4.718-2.361,7.479,0.075c15.467,13.655,30.93,11.774,46.379-5.354
			c20.433-22.652,22.617-60.668,6.457-86.371c-11.624-18.487-31.321-23.271-47.065-11.512c-1.63,1.219-2.978,4.253-5.372,2.748
			c-1.96-1.234-0.977-4.109-0.985-6.254c-0.065-15.074-0.02-30.148-0.065-45.222c-0.01-2.854,0.283-6.577-3.769-6.544
			C2229.797-89.344,2218.04-91.416,2206.488-88.218z M2374.001,44.115c0,24.828,0.121,49.66-0.092,74.486
			c-0.05,5.689,1.759,8.071,7.634,7.783c7.299-0.357,14.644-0.391,21.938-0.002c6.144,0.326,8.224-2.121,8.104-8.113
			c-0.27-13.518-0.141-27.044-0.022-40.566c0.062-7.051,0.886-7.471,7.251-4.504c14.453,6.732,27.942,4.588,38.77-7.213
			c17.34-18.895,20.18-41.59,15.991-65.867c-2.374-13.766-7.692-26.109-19.132-34.616c-12.276-9.129-26.938-7.782-39.648,2.651
			c-2.057,1.69-4.825,5.352-6.393,0.355c-1.973-6.291-6.201-6.574-11.35-6.368c-4.205,0.167-8.422,0.019-12.635,0.024
			c-10.404,0.016-10.413,0.018-10.415,10.122C2373.997-3.77,2374.001,20.172,2374.001,44.115z M2607.988-86.795
			c-0.037-2.541-1.43-3.729-3.039-4.483c-14.416-6.754-28.434-14.493-44.334-17.558c-4.042-0.779-6.324,0.492-7.616,4.3
			c-1.708,5.034-3.577,10.013-5.42,15c-12.894,34.915-25.732,69.851-38.773,104.71c-1.774,4.744-0.919,7.35,3.843,9.251
			c9.462,3.78,18.838,7.796,28.139,11.96c4.421,1.979,6.812,0.785,8.884-3.476c18.808-38.655,37.762-77.239,56.659-115.852
			C2607.006-84.323,2607.549-85.768,2607.988-86.795z M2320.691,18.63c-0.06,0-0.119,0-0.178,0c0,16.607,0.158,33.217-0.104,49.819
			c-0.072,4.519,1.659,5.923,5.766,5.884c8.635-0.082,17.273-0.119,25.908,0.025c4.504,0.076,6.334-1.795,6.322-6.328
			c-0.087-33.217-0.087-66.434-0.006-99.649c0.012-4.595-1.974-6.313-6.42-6.229c-7.747,0.146-15.512,0.286-23.246-0.075
			c-6.035-0.281-8.249,1.971-8.141,8.059C2320.883-13.704,2320.691,2.464,2320.691,18.63z M2508.676,44.707
			c-16.855-0.004-29.514,12.52-29.537,29.221c-0.023,16.109,12.555,28.854,28.432,28.807c16.736-0.051,30.032-12.902,30.124-29.121
			C2537.78,58.614,2523.824,44.712,2508.676,44.707z M2319.36-72.747c-0.022,11.721,8.292,20.371,19.765,20.564
			c11.664,0.195,21.101-8.864,21.062-20.221c-0.037-11.064-8.924-19.488-20.789-19.709
			C2328.116-92.32,2319.382-83.879,2319.36-72.747z"/>
		<path fill-rule="evenodd" clip-rule="evenodd" d="M2206.488-88.218c11.552-3.197,23.309-1.126,34.97-1.224
			c4.052-0.033,3.759,3.69,3.769,6.544c0.046,15.073,0,30.147,0.065,45.222c0.009,2.145-0.975,5.02,0.985,6.254
			c2.395,1.505,3.742-1.529,5.372-2.748c15.744-11.76,35.441-6.976,47.065,11.512c16.16,25.703,13.976,63.719-6.457,86.371
			c-15.449,17.129-30.912,19.01-46.379,5.354c-2.761-2.437-4.959-2.399-7.479-0.075c-9.717,8.959-20.916,5.545-31.912,3.824
			C2206.488,19.138,2206.488-34.54,2206.488-88.218z M2245.146,22.112c0,3.544,0.129,7.093-0.028,10.63
			c-0.262,5.847,2.008,10.123,7.812,11.495c6.272,1.481,10.382-2.249,12.585-7.442c5.126-12.082,5.348-24.495,0.861-36.878
			c-1.758-4.852-5.404-7.899-10.563-7.526c-5.283,0.383-7.871,4.293-9.122,9.232C2244.979,8.381,2245.223,15.248,2245.146,22.112z"
			/>
		<path fill-rule="evenodd" clip-rule="evenodd" d="M2374.001,44.115c0-23.942-0.004-47.885,0.002-71.827
			c0.002-10.104,0.011-10.106,10.415-10.122c4.213-0.006,8.43,0.143,12.635-0.024c5.148-0.206,9.377,0.077,11.35,6.368
			c1.567,4.996,4.336,1.335,6.393-0.355c12.711-10.434,27.372-11.78,39.648-2.651c11.439,8.507,16.758,20.851,19.132,34.616
			c4.188,24.277,1.349,46.973-15.991,65.867c-10.827,11.801-24.316,13.945-38.77,7.213c-6.365-2.967-7.189-2.547-7.251,4.504
			c-0.118,13.522-0.247,27.049,0.022,40.566c0.119,5.992-1.961,8.439-8.104,8.113c-7.295-0.389-14.64-0.355-21.938,0.002
			c-5.875,0.288-7.684-2.094-7.634-7.783C2374.122,93.775,2374.001,68.943,2374.001,44.115z M2411.617,20.835
			c0,3.986,0.184,7.984-0.044,11.959c-0.32,5.61,1.696,9.554,7.311,11.042c5.872,1.558,10.21-1.127,12.571-6.142
			c6.078-12.898,5.619-26.153,0.564-39.24c-1.609-4.166-5.06-6.855-9.885-6.436c-5.039,0.438-7.751,3.647-9.121,8.356
			C2411.053,7.111,2411.598,13.984,2411.617,20.835z"/>
		<path fill-rule="evenodd" clip-rule="evenodd" d="M2607.988-86.795c-0.439,1.027-0.982,2.473-1.658,3.853
			c-18.897,38.612-37.852,77.196-56.659,115.852c-2.071,4.261-4.463,5.454-8.884,3.476c-9.301-4.164-18.677-8.18-28.139-11.96
			c-4.762-1.901-5.617-4.507-3.843-9.251c13.041-34.859,25.88-69.795,38.773-104.71c1.843-4.987,3.712-9.966,5.42-15
			c1.292-3.808,3.574-5.079,7.616-4.3c15.9,3.064,29.918,10.804,44.334,17.558C2606.559-90.524,2607.951-89.336,2607.988-86.795z"/>
		<path fill-rule="evenodd" clip-rule="evenodd" d="M2320.691,18.63c0-16.166,0.191-32.334-0.098-48.495
			c-0.108-6.088,2.105-8.34,8.141-8.059c7.734,0.361,15.499,0.221,23.246,0.075c4.446-0.084,6.432,1.635,6.42,6.229
			c-0.081,33.216-0.081,66.433,0.006,99.649c0.012,4.533-1.818,6.404-6.322,6.328c-8.635-0.145-17.273-0.107-25.908-0.025
			c-4.106,0.039-5.838-1.365-5.766-5.884c0.262-16.603,0.104-33.212,0.104-49.819C2320.572,18.63,2320.632,18.63,2320.691,18.63z"/>
		<path fill-rule="evenodd" clip-rule="evenodd" d="M2508.676,44.707c15.148,0.006,29.104,13.907,29.019,28.906
			c-0.092,16.219-13.388,29.07-30.124,29.121c-15.877,0.048-28.455-12.697-28.432-28.807
			C2479.162,57.226,2491.82,44.703,2508.676,44.707z"/>
		<path fill-rule="evenodd" clip-rule="evenodd" d="M2319.36-72.747c0.021-11.133,8.756-19.573,20.038-19.365
			c11.865,0.221,20.752,8.645,20.789,19.709c0.038,11.356-9.398,20.416-21.062,20.221
			C2327.652-52.375,2319.338-61.026,2319.36-72.747z"/>
		<path fill-rule="evenodd" clip-rule="evenodd" fill="none" d="M2245.146,22.112c0.077-6.864-0.167-13.73,1.545-20.489
			c1.251-4.939,3.839-8.85,9.122-9.232c5.159-0.373,8.806,2.675,10.563,7.526c4.486,12.383,4.265,24.796-0.861,36.878
			c-2.203,5.193-6.312,8.924-12.585,7.442c-5.805-1.372-8.074-5.648-7.812-11.495C2245.274,29.205,2245.146,25.656,2245.146,22.112z
			"/>
		<path fill-rule="evenodd" clip-rule="evenodd" fill="none" d="M2411.617,20.835c-0.02-6.852-0.564-13.725,1.396-20.46
			c1.37-4.709,4.082-7.918,9.121-8.356c4.825-0.42,8.275,2.27,9.885,6.436c5.055,13.087,5.514,26.342-0.564,39.24
			c-2.361,5.015-6.699,7.699-12.571,6.142c-5.614-1.488-7.631-5.432-7.311-11.042C2411.801,28.82,2411.617,24.822,2411.617,20.835z"
			/>
	</g>
</g>
<rect x="1547.992" y="311.146" fill="none" width="678" height="168"/>
<text transform="matrix(1 0 0 1 1547.9917 383.1455)" font-family="'Roboto-Bold'" font-size="96">API REST</text>
<image overflow="visible" width="2418" height="1446" xlink:href="Captura de pantalla 2015-03-09 a las 4.42.28.png"  transform="matrix(0.5 0 0 0.5 546.2598 672.6553)">
</image>
<g id="_x39_wvPmm_1_">
	<g>
		<path fill="none" d="M1650.779,92.984c0-5.966,0-11.933,0-17.898c126.869,0,253.738,0.021,380.608-0.1
			c3.946-0.004,4.848,0.889,4.838,4.837c-0.139,67.909-0.138,135.818,0,203.727c0.01,3.604-0.707,4.315-4.312,4.312
			c-125.641-0.12-251.281-0.12-376.922,0c-3.604,0.003-4.356-0.7-4.319-4.312c0.219-21.054,0.107-42.114,0.107-63.171
			c8.7,1.36,17.559,4.062,25.246-3.025c1.994-1.839,3.733-1.869,5.917,0.059c12.236,10.804,24.468,9.314,36.69-4.235
			c16.164-17.921,17.892-47.995,5.108-68.329c-9.196-14.625-24.778-18.411-37.234-9.107c-1.29,0.963-2.355,3.364-4.25,2.173
			c-1.551-0.976-0.772-3.251-0.78-4.947c-0.052-11.925-0.016-23.85-0.052-35.775c-0.007-2.258,0.224-5.204-2.981-5.177
			C1669.219,92.093,1659.918,90.455,1650.779,92.984z M1783.3,197.673c0,19.643,0.096,39.287-0.073,58.928
			c-0.039,4.502,1.391,6.385,6.039,6.156c5.774-0.282,11.584-0.309,17.356,0c4.86,0.258,6.506-1.679,6.411-6.42
			c-0.213-10.692-0.111-21.394-0.018-32.092c0.049-5.578,0.701-5.909,5.736-3.562c11.435,5.326,22.104,3.629,30.671-5.707
			c13.718-14.947,15.965-32.901,12.65-52.107c-1.877-10.891-6.085-20.656-15.135-27.385c-9.713-7.222-21.311-6.156-31.366,2.098
			c-1.628,1.337-3.817,4.233-5.058,0.28c-1.561-4.977-4.906-5.2-8.978-5.038c-3.327,0.133-6.664,0.015-9.996,0.019
			c-8.23,0.012-8.238,0.015-8.239,8.008C1783.296,159.792,1783.3,178.733,1783.3,197.673z M1968.409,94.11
			c-0.029-2.011-1.131-2.951-2.404-3.547c-11.404-5.343-22.494-11.465-35.073-13.89c-3.198-0.616-5.003,0.39-6.025,3.402
			c-1.351,3.982-2.829,7.921-4.288,11.867c-10.199,27.622-20.357,55.259-30.674,82.837c-1.403,3.754-0.727,5.813,3.041,7.318
			c7.484,2.99,14.902,6.167,22.261,9.461c3.496,1.566,5.389,0.621,7.026-2.749c14.88-30.581,29.874-61.104,44.825-91.651
			C1967.632,96.066,1968.062,94.923,1968.409,94.11z M1741.126,177.513c-0.047,0-0.094,0-0.141,0
			c0,13.139,0.125,26.279-0.082,39.412c-0.057,3.575,1.313,4.686,4.561,4.654c6.832-0.064,13.666-0.093,20.496,0.021
			c3.563,0.06,5.012-1.42,5.002-5.006c-0.069-26.279-0.069-52.557-0.005-78.834c0.009-3.635-1.561-4.995-5.079-4.929
			c-6.128,0.116-12.271,0.227-18.39-0.059c-4.774-0.223-6.526,1.559-6.44,6.375C1741.277,151.933,1741.126,164.724,1741.126,177.513
			z M1889.842,198.143c-13.334-0.004-23.348,9.903-23.366,23.116c-0.019,12.744,9.932,22.827,22.492,22.789
			c13.24-0.04,23.758-10.207,23.83-23.037C1912.866,209.144,1901.826,198.146,1889.842,198.143z M1740.073,105.224
			c-0.019,9.272,6.56,16.116,15.636,16.268c9.228,0.155,16.693-7.012,16.663-15.996c-0.03-8.754-7.059-15.418-16.446-15.592
			C1747,89.739,1740.09,96.417,1740.073,105.224z"/>
		<path fill-rule="evenodd" clip-rule="evenodd" d="M1650.779,92.984c9.139-2.529,18.44-0.891,27.665-0.968
			c3.206-0.026,2.974,2.919,2.981,5.177c0.036,11.925,0,23.85,0.052,35.775c0.007,1.696-0.771,3.972,0.78,4.947
			c1.894,1.191,2.96-1.21,4.25-2.173c12.456-9.304,28.038-5.519,37.234,9.107c12.784,20.333,11.056,50.408-5.108,68.329
			c-12.222,13.55-24.455,15.039-36.69,4.235c-2.185-1.928-3.923-1.897-5.917-0.059c-7.687,7.087-16.546,4.386-25.246,3.025
			C1650.779,177.915,1650.779,135.45,1650.779,92.984z M1681.361,180.267c0,2.804,0.102,5.611-0.023,8.41
			c-0.206,4.625,1.588,8.008,6.181,9.094c4.962,1.172,8.213-1.779,9.956-5.887c4.055-9.559,4.23-19.379,0.681-29.176
			c-1.391-3.838-4.275-6.25-8.357-5.954c-4.179,0.304-6.226,3.397-7.216,7.304C1681.229,169.405,1681.423,174.837,1681.361,180.267z
			"/>
		<path fill-rule="evenodd" clip-rule="evenodd" d="M1783.3,197.673c0-18.939-0.003-37.881,0.001-56.822
			c0.001-7.994,0.009-7.996,8.239-8.008c3.333-0.004,6.669,0.114,9.996-0.019c4.072-0.163,7.417,0.061,8.978,5.038
			c1.24,3.953,3.43,1.057,5.058-0.28c10.056-8.254,21.653-9.32,31.366-2.098c9.05,6.729,13.258,16.495,15.135,27.385
			c3.314,19.206,1.067,37.16-12.65,52.107c-8.566,9.336-19.236,11.033-30.671,5.707c-5.035-2.347-5.688-2.016-5.736,3.562
			c-0.094,10.698-0.195,21.399,0.018,32.092c0.095,4.741-1.551,6.678-6.411,6.42c-5.771-0.309-11.582-0.282-17.356,0
			c-4.648,0.229-6.078-1.654-6.039-6.156C1783.396,236.96,1783.3,217.315,1783.3,197.673z M1813.059,179.257
			c0,3.154,0.145,6.316-0.035,9.461c-0.254,4.439,1.342,7.559,5.783,8.736c4.646,1.232,8.077-0.893,9.945-4.859
			c4.809-10.203,4.445-20.689,0.447-31.043c-1.273-3.295-4.004-5.424-7.82-5.092c-3.986,0.348-6.133,2.887-7.217,6.611
			C1812.611,168.399,1813.042,173.837,1813.059,179.257z"/>
		<path fill-rule="evenodd" clip-rule="evenodd" d="M1968.409,94.11c-0.348,0.812-0.777,1.956-1.312,3.047
			c-14.951,30.546-29.945,61.07-44.825,91.651c-1.638,3.37-3.53,4.315-7.026,2.749c-7.358-3.294-14.776-6.471-22.261-9.461
			c-3.768-1.505-4.444-3.564-3.041-7.318c10.316-27.578,20.475-55.215,30.674-82.837c1.459-3.946,2.938-7.885,4.288-11.867
			c1.022-3.012,2.827-4.018,6.025-3.402c12.579,2.425,23.669,8.547,35.073,13.89C1967.278,91.16,1968.38,92.1,1968.409,94.11z"/>
		<path fill-rule="evenodd" clip-rule="evenodd" d="M1741.126,177.513c0-12.789,0.151-25.58-0.078-38.365
			c-0.086-4.816,1.666-6.598,6.44-6.375c6.119,0.286,12.262,0.175,18.39,0.059c3.518-0.066,5.088,1.294,5.079,4.929
			c-0.064,26.277-0.064,52.555,0.005,78.834c0.01,3.586-1.439,5.065-5.002,5.006c-6.831-0.114-13.665-0.086-20.496-0.021
			c-3.248,0.031-4.618-1.079-4.561-4.654c0.208-13.133,0.082-26.273,0.082-39.412
			C1741.032,177.513,1741.079,177.513,1741.126,177.513z"/>
		<path fill-rule="evenodd" clip-rule="evenodd" d="M1889.842,198.143c11.984,0.004,23.024,11.001,22.956,22.868
			c-0.072,12.83-10.59,22.997-23.83,23.037c-12.561,0.038-22.511-10.045-22.492-22.789
			C1866.494,208.046,1876.508,198.139,1889.842,198.143z"/>
		<path fill-rule="evenodd" clip-rule="evenodd" d="M1740.073,105.224c0.017-8.807,6.927-15.485,15.852-15.32
			c9.387,0.174,16.417,6.838,16.446,15.592c0.03,8.983-7.435,16.15-16.663,15.996
			C1746.633,121.34,1740.055,114.496,1740.073,105.224z"/>
		<path fill-rule="evenodd" clip-rule="evenodd" fill="none" d="M1681.361,180.267c0.062-5.43-0.132-10.861,1.222-16.209
			c0.99-3.906,3.037-7,7.216-7.304c4.082-0.296,6.967,2.116,8.357,5.954c3.549,9.797,3.374,19.617-0.681,29.176
			c-1.743,4.107-4.994,7.059-9.956,5.887c-4.593-1.086-6.387-4.469-6.181-9.094C1681.463,185.878,1681.361,183.07,1681.361,180.267z
			"/>
		<path fill-rule="evenodd" clip-rule="evenodd" fill="none" d="M1813.059,179.257c-0.017-5.42-0.447-10.857,1.104-16.186
			c1.084-3.725,3.23-6.264,7.217-6.611c3.816-0.332,6.547,1.797,7.82,5.092c3.998,10.354,4.361,20.84-0.447,31.043
			c-1.868,3.967-5.3,6.092-9.945,4.859c-4.441-1.178-6.037-4.297-5.783-8.736C1813.203,185.573,1813.059,182.411,1813.059,179.257z"
			/>
	</g>
</g>
<path fill-rule="evenodd" clip-rule="evenodd" fill="#FFFFFF" d="M569.703,680.653c2.176-0.603,4.391-0.213,6.587-0.23
	c0.763-0.007,0.708,0.694,0.71,1.232c0.008,2.839,0,5.679,0.012,8.519c0.001,0.403-0.184,0.945,0.186,1.178
	c0.451,0.283,0.705-0.288,1.012-0.518c2.966-2.215,6.676-1.314,8.866,2.168c3.044,4.842,2.633,12.003-1.216,16.271
	c-2.91,3.226-5.823,3.58-8.736,1.008c-0.52-0.459-0.934-0.451-1.409-0.014c-1.83,1.688-3.94,1.044-6.011,0.721
	C569.703,700.876,569.703,690.765,569.703,680.653z M576.984,701.436c0,0.668,0.024,1.336-0.005,2.003
	c-0.049,1.101,0.378,1.906,1.472,2.165c1.182,0.279,1.956-0.424,2.371-1.401c0.966-2.276,1.007-4.614,0.163-6.947
	c-0.331-0.914-1.018-1.488-1.99-1.418c-0.995,0.072-1.482,0.81-1.718,1.739C576.953,698.85,576.999,700.143,576.984,701.436z"/>
<path fill-rule="evenodd" clip-rule="evenodd" fill="#FFFFFF" d="M601.257,705.58c0-4.51,0-9.02,0-13.529
	c0-1.903,0.002-1.904,1.962-1.907c0.793-0.001,1.588,0.027,2.38-0.005c0.97-0.038,1.766,0.015,2.138,1.2
	c0.295,0.941,0.817,0.251,1.205-0.067c2.394-1.965,5.156-2.219,7.468-0.499c2.155,1.603,3.157,3.928,3.604,6.521
	c0.789,4.573,0.254,8.848-3.012,12.407c-2.04,2.223-4.581,2.627-7.303,1.358c-1.199-0.559-1.354-0.479-1.366,0.849
	c-0.022,2.548-0.046,5.096,0.004,7.642c0.022,1.129-0.37,1.59-1.527,1.528c-1.374-0.073-2.758-0.067-4.132,0
	c-1.107,0.055-1.447-0.394-1.438-1.466C601.28,714.935,601.257,710.257,601.257,705.58z M608.343,701.195
	c0,0.751,0.034,1.504-0.008,2.253c-0.061,1.057,0.319,1.8,1.377,2.08c1.106,0.293,1.923-0.213,2.368-1.157
	c1.145-2.43,1.059-4.927,0.106-7.392c-0.303-0.784-0.954-1.291-1.862-1.212c-0.949,0.082-1.46,0.687-1.718,1.574
	C608.236,698.61,608.339,699.904,608.343,701.195z"/>
<path fill-rule="evenodd" clip-rule="evenodd" fill="#FFFFFF" d="M645.333,680.921c-0.083,0.193-0.185,0.466-0.312,0.726
	c-3.56,7.273-7.13,14.541-10.673,21.823c-0.39,0.803-0.841,1.027-1.673,0.654c-1.752-0.784-3.518-1.541-5.3-2.253
	c-0.897-0.358-1.058-0.849-0.724-1.742c2.457-6.566,4.875-13.147,7.304-19.725c0.347-0.939,0.699-1.877,1.021-2.825
	c0.244-0.717,0.673-0.957,1.435-0.81c2.995,0.577,5.636,2.035,8.352,3.307C645.064,680.219,645.326,680.442,645.333,680.921z"/>
<path fill-rule="evenodd" clip-rule="evenodd" fill="#FFFFFF" d="M591.215,700.78c0-3.046,0.036-6.091-0.019-9.136
	c-0.021-1.146,0.396-1.57,1.533-1.518c1.457,0.068,2.92,0.042,4.379,0.014c0.837-0.016,1.211,0.309,1.209,1.174
	c-0.016,6.257-0.016,12.514,0.001,18.771c0.002,0.854-0.343,1.206-1.191,1.191c-1.626-0.027-3.254-0.021-4.88-0.005
	c-0.773,0.008-1.1-0.257-1.086-1.108c0.049-3.127,0.02-6.256,0.02-9.384C591.193,700.78,591.204,700.78,591.215,700.78z"/>
<path fill-rule="evenodd" clip-rule="evenodd" fill="#FFFFFF" d="M626.625,705.692c2.854,0.001,5.482,2.619,5.466,5.444
	c-0.017,3.056-2.521,5.477-5.674,5.485c-2.991,0.01-5.36-2.392-5.355-5.426C621.066,708.05,623.451,705.691,626.625,705.692z"/>
<path fill-rule="evenodd" clip-rule="evenodd" fill="#FFFFFF" d="M590.964,683.567c0.004-2.097,1.649-3.687,3.774-3.647
	c2.235,0.041,3.909,1.628,3.916,3.713c0.007,2.139-1.771,3.845-3.967,3.809C592.526,687.405,590.96,685.775,590.964,683.567z"/>
<rect x="1151.992" y="277.146" fill="none" width="678" height="168"/>
<text transform="matrix(1 0 0 1 1151.9917 349.1455)" font-family="'Roboto-Bold'" font-size="96">API REST</text>
<rect y="155.655" fill-rule="evenodd" clip-rule="evenodd" fill="#008BCF" width="960" height="636"/>
<g>
	<path fill-rule="evenodd" clip-rule="evenodd" fill="#FFFFFF" d="M11.219,12.418c5.222-1.445,10.536-0.51,15.806-0.553
		c1.831-0.016,1.699,1.668,1.703,2.958c0.021,6.813,0,13.626,0.03,20.439c0.004,0.969-0.44,2.269,0.446,2.826
		c1.082,0.68,1.69-0.69,2.427-1.241c7.116-5.315,16.019-3.154,21.272,5.203c7.304,11.617,6.317,28.799-2.918,39.038
		c-6.983,7.741-13.971,8.592-20.962,2.419c-1.248-1.101-2.241-1.083-3.38-0.033c-4.392,4.049-9.453,2.506-14.423,1.729
		C11.219,60.94,11.219,36.68,11.219,12.418z M28.691,62.284c0,1.601,0.058,3.207-0.013,4.805c-0.117,2.642,0.908,4.575,3.531,5.195
		c2.835,0.67,4.692-1.016,5.688-3.363c2.316-5.461,2.417-11.071,0.389-16.668c-0.794-2.193-2.443-3.57-4.775-3.402
		c-2.388,0.173-3.557,1.941-4.122,4.173C28.615,56.079,28.726,59.182,28.691,62.284z"/>
	<path fill-rule="evenodd" clip-rule="evenodd" fill="#FFFFFF" d="M86.93,72.228c0-10.82-0.002-21.642,0.001-32.464
		c0-4.566,0.005-4.568,4.707-4.574c1.904-0.003,3.811,0.065,5.711-0.011c2.326-0.092,4.238,0.035,5.129,2.878
		c0.709,2.258,1.959,0.604,2.89-0.16c5.745-4.715,12.371-5.326,17.92-1.199c5.17,3.844,7.574,9.423,8.647,15.646
		c1.894,10.972,0.609,21.229-7.228,29.77c-4.894,5.334-10.99,6.303-17.523,3.261c-2.877-1.341-3.25-1.152-3.277,2.035
		c-0.053,6.113-0.111,12.227,0.01,18.334c0.055,2.709-0.886,3.815-3.662,3.668c-3.298-0.175-6.617-0.161-9.916,0
		c-2.655,0.13-3.473-0.945-3.45-3.518C86.985,94.673,86.93,83.45,86.93,72.228z M103.932,61.707c0,1.802,0.083,3.609-0.02,5.405
		c-0.145,2.536,0.766,4.318,3.304,4.991c2.654,0.705,4.615-0.51,5.682-2.776c2.748-5.829,2.541-11.82,0.256-17.735
		c-0.728-1.883-2.288-3.099-4.468-2.91c-2.278,0.2-3.504,1.65-4.123,3.778C103.676,55.504,103.922,58.61,103.932,61.707z"/>
	<path fill-rule="evenodd" clip-rule="evenodd" fill="#FFFFFF" d="M192.686,13.062c-0.198,0.464-0.444,1.116-0.749,1.741
		c-8.542,17.452-17.108,34.891-25.609,52.362c-0.936,1.925-2.017,2.465-4.014,1.57c-4.204-1.881-8.442-3.696-12.718-5.405
		c-2.152-0.86-2.539-2.037-1.738-4.181c5.894-15.756,11.697-31.545,17.524-47.326c0.834-2.255,1.678-4.505,2.45-6.781
		c0.583-1.72,1.615-2.295,3.442-1.943c7.187,1.385,13.522,4.883,20.038,7.936C192.04,11.375,192.67,11.912,192.686,13.062z"/>
	<path fill-rule="evenodd" clip-rule="evenodd" fill="#FFFFFF" d="M62.836,60.71c0-7.306,0.086-14.614-0.044-21.919
		c-0.049-2.75,0.952-3.769,3.68-3.642c3.495,0.163,7.005,0.1,10.506,0.034c2.01-0.037,2.907,0.74,2.902,2.817
		c-0.037,15.012-0.037,30.025,0.003,45.039c0.005,2.049-0.822,2.894-2.858,2.86c-3.902-0.065-7.807-0.049-11.709-0.012
		c-1.856,0.018-2.639-0.616-2.606-2.658c0.119-7.504,0.047-15.011,0.047-22.518C62.782,60.71,62.809,60.71,62.836,60.71z"/>
	<path fill-rule="evenodd" clip-rule="evenodd" fill="#FFFFFF" d="M147.799,72.497c6.847,0.003,13.154,6.285,13.115,13.065
		c-0.042,7.329-6.05,13.138-13.615,13.162c-7.176,0.021-12.86-5.739-12.85-13.02C134.46,78.154,140.182,72.494,147.799,72.497z"/>
	<path fill-rule="evenodd" clip-rule="evenodd" fill="#FFFFFF" d="M62.234,19.411c0.01-5.031,3.958-8.846,9.057-8.752
		c5.363,0.1,9.379,3.908,9.396,8.909c0.018,5.131-4.248,9.227-9.519,9.138C65.982,28.619,62.224,24.708,62.234,19.411z"/>
</g>
<g>
	<path fill="#FCFCFC" d="M249.562,69.251h-23.372l-4.443,13.33h-14.174l24.083-64.695h12.353l24.216,64.695h-14.174L249.562,69.251z
		 M229.789,58.454h16.174l-8.131-24.217L229.789,58.454z"/>
	<path fill="#FCFCFC" d="M292.056,59.786v22.795h-13.33V17.886h25.238c3.821,0,7.235,0.533,10.242,1.6
		c3.006,1.066,5.554,2.555,7.643,4.466c2.088,1.91,3.68,4.177,4.776,6.798c1.096,2.622,1.644,5.474,1.644,8.554
		c0,3.141-0.548,5.97-1.644,8.487c-1.096,2.518-2.688,4.665-4.776,6.442c-2.089,1.777-4.637,3.147-7.643,4.11
		c-3.007,0.963-6.421,1.443-10.242,1.443H292.056z M292.056,48.989h11.908c1.896,0,3.532-0.236,4.91-0.711
		c1.377-0.474,2.502-1.133,3.377-1.978c0.873-0.844,1.518-1.858,1.933-3.044c0.415-1.184,0.622-2.473,0.622-3.865
		c0-1.392-0.208-2.732-0.622-4.021c-0.415-1.288-1.06-2.429-1.933-3.421c-0.875-0.992-2-1.784-3.377-2.378
		c-1.378-0.592-3.015-0.889-4.91-0.889h-11.908V48.989z"/>
	<path fill="#FCFCFC" d="M356.056,82.581h-13.33V17.886h13.33V82.581z"/>
	<path fill="#FCFCFC" d="M396.995,60.054h-25.016V49.7h25.016V60.054z"/>
	<path fill="#FCFCFC" d="M436.556,58.897h-10.62v23.684h-13.33V17.886h24.039c3.732,0,7.08,0.422,10.042,1.267
		c2.962,0.844,5.465,2.088,7.509,3.732c2.044,1.644,3.614,3.681,4.71,6.109c1.096,2.43,1.644,5.243,1.644,8.442
		c0,2.37-0.267,4.495-0.8,6.376c-0.533,1.882-1.304,3.555-2.311,5.021c-1.007,1.466-2.222,2.748-3.644,3.843
		c-1.422,1.097-3.021,2.045-4.799,2.844l13.997,26.438v0.622h-14.308L436.556,58.897z M425.937,48.101h10.753
		c1.748,0,3.28-0.229,4.599-0.688c1.318-0.459,2.414-1.111,3.288-1.955c0.874-0.845,1.533-1.852,1.978-3.021s0.667-2.48,0.667-3.933
		c0-3.051-0.867-5.45-2.599-7.198c-1.733-1.747-4.392-2.622-7.976-2.622h-10.708V48.101z"/>
	<path fill="#FCFCFC" d="M514.064,54.544H488.47v17.328h30.037v10.709H475.14V17.886h43.278v10.797H488.47v15.419h25.594V54.544z"/>
	<path fill="#FCFCFC" d="M564.334,65.607c0-1.125-0.163-2.14-0.489-3.044c-0.326-0.903-0.955-1.739-1.889-2.51
		c-0.933-0.771-2.222-1.525-3.865-2.267c-1.645-0.74-3.77-1.525-6.376-2.354c-2.962-0.948-5.754-2.015-8.375-3.199
		c-2.622-1.185-4.918-2.585-6.888-4.199c-1.97-1.614-3.525-3.473-4.665-5.576c-1.141-2.104-1.711-4.562-1.711-7.377
		c0-2.694,0.584-5.161,1.755-7.397c1.17-2.236,2.814-4.14,4.933-5.71c2.117-1.569,4.635-2.792,7.554-3.666
		c2.917-0.873,6.124-1.311,9.62-1.311c3.584,0,6.843,0.496,9.775,1.488c2.933,0.993,5.436,2.377,7.509,4.154
		c2.073,1.777,3.673,3.889,4.799,6.332c1.125,2.444,1.688,5.118,1.688,8.021h-13.33c0-1.362-0.215-2.622-0.645-3.776
		c-0.43-1.156-1.088-2.147-1.977-2.978c-0.889-0.829-2-1.474-3.333-1.933s-2.903-0.689-4.71-0.689c-1.748,0-3.266,0.193-4.555,0.578
		c-1.288,0.386-2.354,0.919-3.199,1.6c-0.844,0.682-1.481,1.481-1.91,2.399c-0.43,0.919-0.645,1.896-0.645,2.933
		c0,2.133,1.089,3.918,3.266,5.354c2.178,1.437,5.369,2.776,9.576,4.021c3.525,1.097,6.627,2.311,9.309,3.645
		c2.68,1.332,4.917,2.844,6.709,4.531c1.792,1.689,3.147,3.585,4.066,5.688c0.918,2.104,1.377,4.488,1.377,7.154
		c0,2.844-0.556,5.377-1.666,7.598c-1.111,2.223-2.688,4.096-4.732,5.621c-2.044,1.526-4.51,2.696-7.398,3.511
		c-2.888,0.814-6.109,1.222-9.664,1.222c-2.133,0-4.266-0.186-6.398-0.556s-4.17-0.939-6.109-1.71
		c-1.941-0.771-3.74-1.733-5.399-2.889c-1.659-1.155-3.104-2.518-4.333-4.088c-1.229-1.569-2.192-3.354-2.888-5.354
		c-0.697-1.999-1.044-4.213-1.044-6.643h13.375c0,1.955,0.311,3.614,0.933,4.977c0.622,1.363,1.489,2.466,2.599,3.311
		c1.111,0.844,2.451,1.459,4.021,1.844c1.57,0.386,3.317,0.577,5.243,0.577c1.718,0,3.214-0.185,4.488-0.555
		c1.273-0.37,2.325-0.881,3.155-1.533c0.829-0.651,1.444-1.429,1.844-2.333C564.134,67.614,564.334,66.645,564.334,65.607z"/>
	<path fill="#FCFCFC" d="M639.887,28.683h-19.817v53.898h-13.33V28.683h-19.551V17.886h52.698V28.683z"/>
</g>
</svg>
