<?xml version="1.0" encoding="utf-8"?>
<!-- Generator: Adobe Illustrator 16.0.0, SVG Export Plug-In . SVG Version: 6.00 Build 0)  -->
<!DOCTYPE svg PUBLIC "-//W3C//DTD SVG 1.1//EN" "http://www.w3.org/Graphics/SVG/1.1/DTD/svg11.dtd">
<svg version="1.1" id="Layer_1" xmlns="http://www.w3.org/2000/svg" xmlns:xlink="http://www.w3.org/1999/xlink" x="0px" y="0px"
	 width="638px" height="112px" viewBox="0 0 638 112" enable-background="new 0 0 638 112" xml:space="preserve">
<g>
	<path fill-rule="evenodd" clip-rule="evenodd" fill="#FFFFFF" d="M3.219,10.418c5.222-1.445,10.536-0.51,15.806-0.553
		c1.831-0.016,1.699,1.668,1.703,2.958c0.021,6.813,0,13.626,0.03,20.439c0.004,0.969-0.44,2.269,0.446,2.826
		c1.082,0.68,1.69-0.69,2.427-1.241c7.116-5.315,16.019-3.154,21.272,5.203c7.304,11.617,6.317,28.798-2.918,39.038
		c-6.983,7.741-13.971,8.592-20.962,2.419c-1.248-1.102-2.241-1.084-3.38-0.033c-4.392,4.049-9.453,2.506-14.423,1.729
		C3.219,58.94,3.219,34.68,3.219,10.418z M20.691,60.283c0,1.602,0.058,3.207-0.013,4.806c-0.117,2.642,0.908,4.575,3.531,5.194
		c2.835,0.67,4.692-1.016,5.688-3.362c2.316-5.461,2.417-11.071,0.389-16.668c-0.794-2.193-2.443-3.57-4.775-3.402
		c-2.388,0.173-3.557,1.941-4.122,4.173C20.615,54.078,20.726,57.182,20.691,60.283z"/>
	<path fill-rule="evenodd" clip-rule="evenodd" fill="#FFFFFF" d="M78.93,70.229c0-10.82-0.002-21.643,0.001-32.464
		c0-4.566,0.005-4.568,4.707-4.574c1.904-0.003,3.811,0.065,5.711-0.011c2.326-0.092,4.238,0.035,5.129,2.878
		c0.709,2.258,1.959,0.604,2.89-0.16c5.745-4.715,12.371-5.326,17.92-1.199c5.17,3.844,7.574,9.423,8.647,15.646
		c1.894,10.973,0.609,21.229-7.228,29.77c-4.894,5.334-10.99,6.303-17.523,3.262c-2.877-1.342-3.25-1.152-3.277,2.034
		c-0.053,6.112-0.111,12.227,0.01,18.335c0.055,2.709-0.886,3.814-3.662,3.668c-3.298-0.176-6.617-0.162-9.916,0
		c-2.655,0.129-3.473-0.945-3.45-3.518C78.985,92.674,78.93,81.45,78.93,70.229z M95.932,59.707c0,1.803,0.083,3.609-0.02,5.405
		c-0.145,2.536,0.766,4.317,3.304,4.991c2.654,0.704,4.615-0.51,5.682-2.777c2.748-5.828,2.541-11.819,0.256-17.734
		c-0.728-1.883-2.288-3.099-4.468-2.91c-2.278,0.2-3.504,1.65-4.123,3.778C95.676,53.504,95.922,56.609,95.932,59.707z"/>
	<path fill-rule="evenodd" clip-rule="evenodd" fill="#FFFFFF" d="M184.686,11.062c-0.198,0.464-0.444,1.116-0.749,1.741
		c-8.542,17.452-17.108,34.891-25.609,52.362c-0.936,1.926-2.017,2.465-4.014,1.57c-4.204-1.881-8.442-3.696-12.718-5.405
		c-2.152-0.86-2.539-2.036-1.738-4.181c5.894-15.756,11.697-31.545,17.524-47.326c0.834-2.255,1.678-4.505,2.45-6.781
		c0.583-1.72,1.615-2.295,3.442-1.943c7.187,1.385,13.522,4.883,20.038,7.936C184.04,9.375,184.67,9.912,184.686,11.062z"/>
	<path fill-rule="evenodd" clip-rule="evenodd" fill="#FFFFFF" d="M54.836,58.711c0-7.307,0.086-14.615-0.044-21.92
		c-0.049-2.75,0.952-3.769,3.68-3.642c3.495,0.163,7.005,0.1,10.506,0.034c2.01-0.037,2.907,0.74,2.902,2.817
		c-0.037,15.012-0.037,30.025,0.003,45.039c0.005,2.049-0.822,2.893-2.858,2.859c-3.902-0.064-7.807-0.049-11.709-0.012
		c-1.856,0.018-2.639-0.617-2.606-2.658c0.119-7.504,0.047-15.012,0.047-22.518C54.782,58.711,54.809,58.711,54.836,58.711z"/>
	<path fill-rule="evenodd" clip-rule="evenodd" fill="#FFFFFF" d="M139.799,70.496c6.847,0.004,13.154,6.285,13.115,13.066
		c-0.042,7.328-6.05,13.138-13.615,13.161c-7.176,0.021-12.86-5.739-12.85-13.021C126.46,76.154,132.182,70.494,139.799,70.496z"/>
	<path fill-rule="evenodd" clip-rule="evenodd" fill="#FFFFFF" d="M54.234,17.411c0.01-5.031,3.958-8.846,9.057-8.752
		c5.363,0.1,9.379,3.908,9.396,8.909c0.018,5.131-4.248,9.227-9.519,9.138C57.982,26.619,54.224,22.708,54.234,17.411z"/>
</g>
<g>
	<path fill="#FBFBFB" d="M241.562,67.251h-23.372l-4.443,13.33h-14.174l24.083-64.695h12.353l24.216,64.695h-14.174L241.562,67.251z
		 M221.789,56.454h16.174l-8.131-24.217L221.789,56.454z"/>
	<path fill="#FBFBFB" d="M284.056,57.786v22.795h-13.33V15.886h25.238c3.821,0,7.235,0.533,10.242,1.6
		c3.006,1.066,5.554,2.555,7.643,4.466c2.088,1.91,3.68,4.177,4.776,6.798c1.096,2.622,1.645,5.474,1.645,8.554
		c0,3.141-0.549,5.97-1.645,8.487c-1.096,2.518-2.688,4.665-4.776,6.442c-2.089,1.777-4.637,3.147-7.643,4.11
		c-3.007,0.963-6.421,1.443-10.242,1.443H284.056z M284.056,46.989h11.908c1.896,0,3.532-0.236,4.91-0.711
		c1.377-0.474,2.502-1.133,3.377-1.978c0.873-0.844,1.518-1.858,1.933-3.044c0.415-1.184,0.622-2.473,0.622-3.865
		c0-1.392-0.208-2.732-0.622-4.021c-0.415-1.288-1.06-2.429-1.933-3.421c-0.875-0.992-2-1.784-3.377-2.378
		c-1.378-0.592-3.015-0.889-4.91-0.889h-11.908V46.989z"/>
	<path fill="#FBFBFB" d="M348.056,80.581h-13.33V15.886h13.33V80.581z"/>
	<path fill="#FBFBFB" d="M388.994,58.054h-25.016V47.7h25.016V58.054z"/>
	<path fill="#FBFBFB" d="M428.557,56.897h-10.62v23.684h-13.33V15.886h24.038c3.732,0,7.08,0.422,10.043,1.267
		c2.961,0.844,5.465,2.088,7.509,3.732c2.044,1.644,3.614,3.681,4.71,6.109c1.096,2.43,1.645,5.243,1.645,8.442
		c0,2.37-0.268,4.495-0.801,6.376c-0.533,1.882-1.303,3.555-2.311,5.021c-1.007,1.466-2.221,2.748-3.643,3.843
		c-1.422,1.097-3.021,2.045-4.799,2.844l13.996,26.438v0.622h-14.308L428.557,56.897z M417.937,46.101h10.753
		c1.748,0,3.28-0.229,4.599-0.688c1.317-0.459,2.414-1.111,3.288-1.955c0.873-0.845,1.533-1.852,1.978-3.021s0.667-2.48,0.667-3.933
		c0-3.051-0.867-5.45-2.6-7.198c-1.733-1.747-4.393-2.622-7.977-2.622h-10.708V46.101z"/>
	<path fill="#FBFBFB" d="M506.064,52.544h-25.594v17.328h30.037v10.709h-43.367V15.886h43.277v10.797h-29.947v15.419h25.594V52.544z
		"/>
	<path fill="#FBFBFB" d="M556.334,63.607c0-1.125-0.163-2.14-0.488-3.044c-0.326-0.903-0.955-1.739-1.889-2.51
		s-2.223-1.525-3.865-2.267c-1.645-0.74-3.771-1.525-6.377-2.354c-2.963-0.948-5.754-2.015-8.375-3.199
		c-2.623-1.185-4.918-2.585-6.889-4.199c-1.97-1.614-3.525-3.473-4.664-5.576c-1.142-2.104-1.711-4.562-1.711-7.377
		c0-2.694,0.584-5.161,1.754-7.397s2.814-4.14,4.934-5.71c2.117-1.569,4.635-2.792,7.553-3.666c2.918-0.873,6.125-1.311,9.62-1.311
		c3.584,0,6.843,0.496,9.775,1.488c2.933,0.993,5.436,2.377,7.509,4.154c2.074,1.777,3.674,3.889,4.799,6.332
		c1.126,2.444,1.689,5.118,1.689,8.021h-13.33c0-1.362-0.216-2.622-0.645-3.776c-0.43-1.156-1.089-2.147-1.978-2.978
		c-0.889-0.829-1.999-1.474-3.333-1.933c-1.332-0.459-2.902-0.689-4.709-0.689c-1.748,0-3.266,0.193-4.555,0.578
		c-1.289,0.386-2.355,0.919-3.199,1.6c-0.844,0.682-1.482,1.481-1.91,2.399c-0.431,0.919-0.645,1.896-0.645,2.933
		c0,2.133,1.088,3.918,3.266,5.354s5.369,2.776,9.575,4.021c3.524,1.097,6.628,2.311,9.31,3.645c2.68,1.332,4.916,2.844,6.709,4.531
		c1.791,1.689,3.146,3.585,4.065,5.688c0.918,2.104,1.378,4.488,1.378,7.154c0,2.844-0.557,5.377-1.666,7.598
		c-1.111,2.223-2.689,4.096-4.732,5.621c-2.045,1.526-4.51,2.696-7.398,3.511s-6.109,1.222-9.664,1.222
		c-2.133,0-4.266-0.186-6.398-0.556s-4.17-0.939-6.109-1.71c-1.941-0.771-3.74-1.733-5.399-2.889s-3.104-2.518-4.333-4.088
		c-1.229-1.569-2.191-3.354-2.887-5.354c-0.697-1.999-1.045-4.213-1.045-6.643h13.375c0,1.955,0.311,3.614,0.933,4.977
		c0.622,1.363,1.489,2.466,2.599,3.311c1.111,0.844,2.451,1.459,4.021,1.844c1.57,0.386,3.318,0.577,5.244,0.577
		c1.717,0,3.213-0.185,4.487-0.555c1.273-0.37,2.325-0.881,3.155-1.533c0.828-0.651,1.443-1.429,1.844-2.333
		C556.135,65.614,556.334,64.645,556.334,63.607z"/>
	<path fill="#FBFBFB" d="M631.887,26.683h-19.817v53.898h-13.33V26.683h-19.551V15.886h52.698V26.683z"/>
</g>
</svg>
